<svg width="33" height="29" viewBox="0 0 33 29" fill="none" xmlns="http://www.w3.org/2000/svg">
<path d="M30.9375 12.4301H6.47625L13.9631 3.39943C14.3132 2.97645 14.4816 2.43113 14.4314 1.88344C14.3811 1.33575 14.1162 0.830549 13.695 0.47898C13.2738 0.12741 12.7308 -0.0417319 12.1854 0.00876447C11.64 0.0592608 11.137 0.325259 10.7869 0.748241L0.474375 13.1757C0.404994 13.2745 0.342951 13.3784 0.28875 13.4864C0.28875 13.5899 0.28875 13.6521 0.144375 13.7556C0.0508894 13.9931 0.00194106 14.2459 0 14.5013C0.00194106 14.7567 0.0508894 15.0095 0.144375 15.2469C0.144375 15.3505 0.144375 15.4126 0.28875 15.5162C0.342951 15.6242 0.404994 15.728 0.474375 15.8269L10.7869 28.2543C10.9808 28.4882 11.2236 28.6762 11.4981 28.8051C11.7726 28.9339 12.072 29.0005 12.375 29C12.8569 29.0009 13.3239 28.8324 13.695 28.5236C13.9038 28.3497 14.0765 28.1362 14.203 27.8952C14.3296 27.6542 14.4075 27.3905 14.4324 27.1192C14.4573 26.848 14.4287 26.5744 14.3482 26.3143C14.2676 26.0541 14.1368 25.8125 13.9631 25.6032L6.47625 16.5725H30.9375C31.4845 16.5725 32.0091 16.3543 32.3959 15.9659C32.7827 15.5775 33 15.0506 33 14.5013C33 13.952 32.7827 13.4251 32.3959 13.0367C32.0091 12.6483 31.4845 12.4301 30.9375 12.4301Z" fill="#194F83"/>
</svg>
