<svg width="150" height="150" viewBox="0 0 37 37" fill="none" xmlns="http://www.w3.org/2000/svg">
<path d="M34.8036 28.8629C36.1839 24.2854 36.1839 19.652 34.8036 15.0746C35.2457 14.7956 35.6191 14.4202 35.8958 13.9766C36.1724 13.533 36.3452 13.0326 36.4013 12.5128C36.4573 11.993 36.3951 11.4673 36.2193 10.9749C36.0436 10.4825 35.7588 10.0362 35.3862 9.6694C35.0137 9.30259 34.5631 9.02472 34.0681 8.85658C33.573 8.68844 33.0464 8.63438 32.5275 8.69844C32.0086 8.76249 31.5109 8.943 31.0717 9.22648C30.6324 9.50996 30.2628 9.88908 29.9907 10.3355C22.3977 8.89544 14.6017 8.89544 7.00865 10.3355C6.73651 9.88908 6.36699 9.50996 5.9277 9.22648C5.48842 8.943 4.99074 8.76249 4.47186 8.69844C3.95299 8.63438 3.42635 8.68844 2.93131 8.85658C2.43627 9.02472 1.98565 9.30259 1.61312 9.6694C1.24059 10.0362 0.955797 10.4825 0.780031 10.9749C0.604265 11.4673 0.542073 11.993 0.598104 12.5128C0.654135 13.0326 0.82694 13.533 1.1036 13.9766C1.38026 14.4202 1.75362 14.7956 2.19576 15.0746C0.815488 19.652 0.815488 24.2854 2.19576 28.8629C1.75362 29.1419 1.38026 29.5172 1.1036 29.9608C0.82694 30.4044 0.654135 30.9048 0.598104 31.4246C0.542073 31.9444 0.604265 32.4702 0.780031 32.9626C0.955797 33.4549 1.24059 33.9012 1.61312 34.268C1.98565 34.6349 2.43627 34.9127 2.93131 35.0809C3.42635 35.249 3.95299 35.3031 4.47186 35.239C4.99074 35.175 5.48842 34.9944 5.9277 34.711C6.36699 34.4275 6.73651 34.0484 7.00865 33.602C14.6017 35.042 22.3977 35.042 29.9907 33.602C30.2628 34.0484 30.6324 34.4275 31.0717 34.711C31.5109 34.9944 32.0086 35.175 32.5275 35.239C33.0464 35.3031 33.573 35.249 34.0681 35.0809C34.5631 34.9127 35.0137 34.6349 35.3862 34.268C35.7588 33.9012 36.0436 33.4549 36.2193 32.9626C36.3951 32.4702 36.4573 31.9444 36.4013 31.4246C36.3452 30.9048 36.1724 30.4044 35.8958 29.9608C35.6191 29.5172 35.2457 29.1419 34.8036 28.8629ZM32.9531 34.1094C32.5031 34.1093 32.0629 33.9779 31.6865 33.7315C31.31 33.4851 31.0135 33.1342 30.8334 32.7219C30.7808 32.6013 30.6886 32.5023 30.5721 32.4412C30.4555 32.3801 30.3216 32.3607 30.1925 32.386C22.4716 33.9061 14.5283 33.9061 6.80739 32.386C6.6783 32.3607 6.54442 32.3801 6.42788 32.4412C6.31135 32.5023 6.21916 32.6013 6.16654 32.7219C6.01584 33.067 5.78314 33.37 5.48867 33.6047C5.1942 33.8395 4.84686 33.9987 4.47684 34.0687C4.10682 34.1386 3.72532 34.1171 3.36549 34.0061C3.00566 33.8951 2.67839 33.6979 2.41211 33.4316C2.14584 33.1653 1.94862 32.838 1.83759 32.4782C1.72656 32.1184 1.70509 31.7369 1.77504 31.3669C1.84499 30.9968 2.00424 30.6495 2.23895 30.355C2.47367 30.0606 2.77674 29.8279 3.12185 29.6772C3.25314 29.6198 3.35845 29.5157 3.41735 29.385C3.47625 29.2544 3.48454 29.1066 3.44061 28.9702C1.94399 24.3244 1.94399 19.6131 3.44061 14.9673C3.48454 14.8309 3.47625 14.683 3.41735 14.5524C3.35845 14.4218 3.25314 14.3177 3.12185 14.2603C2.77674 14.1096 2.47367 13.8769 2.23895 13.5824C2.00424 13.2879 1.84499 12.9406 1.77504 12.5706C1.70509 12.2006 1.72656 11.8191 1.83759 11.4592C1.94862 11.0994 2.14584 10.7721 2.41211 10.5059C2.67839 10.2396 3.00566 10.0424 3.36549 9.93134C3.72532 9.82032 4.10682 9.79885 4.47684 9.86879C4.84686 9.93874 5.1942 10.098 5.48867 10.3327C5.78314 10.5674 6.01584 10.8705 6.16654 11.2156C6.21922 11.3361 6.31143 11.4351 6.42794 11.4961C6.54445 11.5572 6.6783 11.5767 6.80739 11.5514C14.5283 10.0314 22.4716 10.0314 30.1925 11.5514C30.3216 11.5767 30.4555 11.5572 30.572 11.4961C30.6885 11.4351 30.7807 11.3361 30.8334 11.2156C30.9841 10.8705 31.2168 10.5674 31.5113 10.3327C31.8057 10.098 32.1531 9.93874 32.5231 9.86879C32.8931 9.79885 33.2746 9.82032 33.6344 9.93134C33.9943 10.0424 34.3216 10.2396 34.5878 10.5059C34.8541 10.7721 35.0513 11.0994 35.1624 11.4592C35.2734 11.8191 35.2948 12.2006 35.2249 12.5706C35.155 12.9406 34.9957 13.2879 34.761 13.5824C34.5263 13.8769 34.2232 14.1096 33.8781 14.2603C33.7468 14.3177 33.6415 14.4218 33.5826 14.5524C33.5237 14.683 33.5154 14.8309 33.5593 14.9673C35.056 19.6131 35.056 24.3244 33.5593 28.9702C33.5154 29.1066 33.5237 29.2544 33.5826 29.385C33.6415 29.5157 33.7468 29.6198 33.8781 29.6772C34.3652 29.8896 34.7642 30.2633 35.0082 30.7353C35.2521 31.2074 35.326 31.7491 35.2174 32.2693C35.1088 32.7895 34.8245 33.2564 34.4121 33.5915C33.9997 33.9266 33.4845 34.1095 32.9531 34.1094Z" fill="#56A5E1"/>
<path d="M27.6623 30.5154C22.7364 31.2735 17.7354 31.4175 12.774 30.9442C12.6984 30.9369 12.6222 30.9446 12.5496 30.9668C12.477 30.9891 12.4094 31.0254 12.3509 31.0737C12.2923 31.122 12.2438 31.1814 12.2082 31.2484C12.1726 31.3155 12.1505 31.3889 12.1433 31.4645C12.136 31.54 12.1437 31.6163 12.1659 31.6889C12.1882 31.7615 12.2245 31.829 12.2728 31.8876C12.3211 31.9462 12.3805 31.9946 12.4475 32.0303C12.5146 32.0659 12.588 32.088 12.6636 32.0952C14.5961 32.2805 16.5364 32.3732 18.4844 32.3732C21.6158 32.3728 24.7426 32.1338 27.8378 31.6584C27.9882 31.6338 28.1228 31.5509 28.2124 31.4276C28.302 31.3043 28.3393 31.1507 28.3161 31C28.293 30.8494 28.2114 30.714 28.0889 30.6233C27.9665 30.5325 27.8132 30.4938 27.6623 30.5155V30.5154Z" fill="#56A5E1"/>
<path d="M20.2344 12.7188H21.344L19.7831 14.6699C19.715 14.7549 19.6723 14.8575 19.66 14.9657C19.6476 15.0739 19.6661 15.1834 19.7133 15.2816C19.7604 15.3798 19.8344 15.4626 19.9266 15.5206C20.0188 15.5786 20.1255 15.6094 20.2344 15.6094H22.5469C22.7002 15.6094 22.8473 15.5485 22.9557 15.44C23.0641 15.3316 23.125 15.1846 23.125 15.0312C23.125 14.8779 23.0641 14.7309 22.9557 14.6225C22.8473 14.514 22.7002 14.4531 22.5469 14.4531H21.4372L22.9982 12.502C23.0662 12.4169 23.1089 12.3144 23.1213 12.2062C23.1336 12.098 23.1152 11.9885 23.068 11.8903C23.0208 11.7921 22.9469 11.7093 22.8547 11.6513C22.7625 11.5933 22.6558 11.5625 22.5469 11.5625H20.2344C20.081 11.5625 19.934 11.6234 19.8256 11.7318C19.7172 11.8402 19.6563 11.9873 19.6563 12.1406C19.6563 12.294 19.7172 12.441 19.8256 12.5494C19.934 12.6578 20.081 12.7188 20.2344 12.7188Z" fill="#56A5E1"/>
<path d="M25.4375 5.78125H26.5471L24.9862 7.73242C24.9181 7.81745 24.8755 7.91997 24.8631 8.02819C24.8508 8.1364 24.8692 8.24591 24.9164 8.34409C24.9635 8.44226 25.0375 8.52512 25.1297 8.58311C25.2219 8.64111 25.3286 8.67188 25.4375 8.67188H27.75C27.9033 8.67188 28.0504 8.61097 28.1588 8.50255C28.2672 8.39413 28.3281 8.24708 28.3281 8.09375C28.3281 7.94042 28.2672 7.79337 28.1588 7.68495C28.0504 7.57653 27.9033 7.51562 27.75 7.51562H26.6404L28.2013 5.56445C28.2694 5.47943 28.312 5.3769 28.3244 5.26869C28.3368 5.16047 28.3183 5.05097 28.2711 4.95279C28.224 4.85461 28.15 4.77175 28.0578 4.71376C27.9656 4.65577 27.8589 4.625 27.75 4.625H25.4375C25.2842 4.625 25.1371 4.68591 25.0287 4.79433C24.9203 4.90275 24.8594 5.0498 24.8594 5.20312C24.8594 5.35645 24.9203 5.5035 25.0287 5.61192C25.1371 5.72034 25.2842 5.78125 25.4375 5.78125Z" fill="#56A5E1"/>
<path d="M18.5 2.89062H19.6096L18.0487 4.8418C17.9806 4.92682 17.938 5.02935 17.9256 5.13756C17.9133 5.24578 17.9317 5.35528 17.9789 5.45346C18.026 5.55164 18.1 5.6345 18.1922 5.69249C18.2844 5.75048 18.3911 5.78125 18.5 5.78125H20.8125C20.9658 5.78125 21.1129 5.72034 21.2213 5.61192C21.3297 5.5035 21.3906 5.35645 21.3906 5.20312C21.3906 5.0498 21.3297 4.90275 21.2213 4.79433C21.1129 4.68591 20.9658 4.625 20.8125 4.625H19.7029L21.2638 2.67383C21.3319 2.5888 21.3745 2.48628 21.3869 2.37806C21.3992 2.26985 21.3808 2.16034 21.3336 2.06216C21.2865 1.96399 21.2125 1.88113 21.1203 1.82314C21.0281 1.76514 20.9214 1.73437 20.8125 1.73438H18.5C18.3467 1.73438 18.1996 1.79528 18.0912 1.9037C17.9828 2.01212 17.9219 2.15917 17.9219 2.3125C17.9219 2.46583 17.9828 2.61288 18.0912 2.7213C18.1996 2.82972 18.3467 2.89062 18.5 2.89062Z" fill="#56A5E1"/>
</svg>
