<svg width="990" height="200"  viewBox="0 0 540 90" fill="none" xmlns="http://www.w3.org/2000/svg">
<path d="M3 0H16C16.7956 0 17.5587 0.316071 18.1213 0.878682C18.6839 1.44129 19 2.20436 19 3.00001V12C19 12.7957 18.6839 13.5587 18.1213 14.1213C17.5587 14.684 16.7956 15 16 15H3C2.20435 15 1.44129 14.684 0.87868 14.1213C0.316071 13.5587 0 12.7957 0 12V3.00001C0 2.20436 0.316071 1.44129 0.87868 0.878682C1.44129 0.316071 2.20435 0 3 0ZM3 1C2.512 1 2.064 1.175 1.717 1.466L9.5 6.52001L17.283 1.466C16.9236 1.16442 16.4692 0.999387 16 1H3ZM9.5 7.71202L1.134 2.28C1.04529 2.50968 0.999855 2.75379 1 3.00001V12C1 12.5305 1.21071 13.0392 1.58579 13.4142C1.96086 13.7893 2.46957 14 3 14H16C16.5304 14 17.0391 13.7893 17.4142 13.4142C17.7893 13.0392 18 12.5305 18 12V3.00001C18 2.74601 17.953 2.50301 17.866 2.28L9.5 7.71102V7.71202Z" fill="#585858"/>
</svg>
