<svg width="20" height="18" viewBox="0 0 36 26" fill="none" xmlns="http://www.w3.org/2000/svg">
<path d="M33.4286 0H2.57143C1.88944 0 1.23539 0.273928 0.753154 0.761522C0.270917 1.24912 0 1.91044 0 2.6V23.4C0 24.0896 0.270917 24.7509 0.753154 25.2385C1.23539 25.7261 1.88944 26 2.57143 26H33.4286C34.1106 26 34.7646 25.7261 35.2468 25.2385C35.7291 24.7509 36 24.0896 36 23.4V2.6C36 1.91044 35.7291 1.24912 35.2468 0.761522C34.7646 0.273928 34.1106 0 33.4286 0ZM30.6 2.6L18 11.414L5.4 2.6H30.6ZM2.57143 23.4V3.783L17.2671 14.066C17.4824 14.217 17.7381 14.2979 18 14.2979C18.2619 14.2979 18.5176 14.217 18.7329 14.066L33.4286 3.783V23.4H2.57143Z" fill="black"/>
</svg>
