<svg width="76" height="76" viewBox="0 0 76 76" fill="none" xmlns="http://www.w3.org/2000/svg">
<path d="M38 7.6C29.9374 7.6 22.2051 10.8028 16.504 16.504C10.8028 22.2051 7.6 29.9374 7.6 38C7.6 46.0626 10.8028 53.7949 16.504 59.496C22.2051 65.1972 29.9374 68.4 38 68.4C46.0626 68.4 53.7949 65.1972 59.496 59.496C65.1972 53.7949 68.4 46.0626 68.4 38C68.4 29.9374 65.1972 22.2051 59.496 16.504C53.7949 10.8028 46.0626 7.6 38 7.6V7.6ZM0 38C0 17.0126 17.0126 0 38 0C58.9874 0 76 17.0126 76 38C76 58.9874 58.9874 76 38 76C17.0126 76 0 58.9874 0 38ZM22.0134 22.0134C22.726 21.301 23.6924 20.9008 24.7 20.9008C25.7076 20.9008 26.674 21.301 27.3866 22.0134L38 32.6268L48.6134 22.0134C48.9639 21.6505 49.3832 21.361 49.8469 21.1618C50.3105 20.9627 50.8091 20.8578 51.3137 20.8534C51.8182 20.8491 52.3186 20.9452 52.7856 21.1363C53.2526 21.3273 53.6769 21.6095 54.0337 21.9663C54.3905 22.3231 54.6727 22.7474 54.8637 23.2144C55.0548 23.6814 55.1509 24.1818 55.1466 24.6863C55.1422 25.1909 55.0373 25.6895 54.8382 26.1531C54.639 26.6168 54.3495 27.0361 53.9866 27.3866L43.3732 38L53.9866 48.6134C54.6788 49.3301 55.0618 50.29 55.0532 51.2863C55.0445 52.2827 54.6449 53.2358 53.9403 53.9403C53.2358 54.6449 52.2827 55.0445 51.2863 55.0532C50.29 55.0618 49.3301 54.6788 48.6134 53.9866L38 43.3732L27.3866 53.9866C26.6699 54.6788 25.71 55.0618 24.7137 55.0532C23.7173 55.0445 22.7642 54.6449 22.0597 53.9403C21.3551 53.2358 20.9555 52.2827 20.9468 51.2863C20.9382 50.29 21.3212 49.3301 22.0134 48.6134L32.6268 38L22.0134 27.3866C21.301 26.674 20.9008 25.7076 20.9008 24.7C20.9008 23.6924 21.301 22.726 22.0134 22.0134V22.0134Z" fill="#CE3420"/>
</svg>
