<svg width="150" height="150" viewBox="0 0 28 28" fill="none" xmlns="http://www.w3.org/2000/svg">
<g clip-path="url(#clip0)">
<path d="M27.6855 4.69284L14.1521 0.0261776C14.0535 -0.0078307 13.9465 -0.0078307 13.8479 0.0261776L0.314533 4.69284C0.12635 4.75771 5.83333e-05 4.93481 0 5.13384V27.5338C0 27.7916 0.20895 28.0005 0.466667 28.0005H2.8C3.05772 28.0005 3.26667 27.7916 3.26667 27.5338V13.0672H24.7333V27.5338C24.7333 27.7916 24.9423 28.0005 25.2 28.0005H27.5333C27.791 28.0005 28 27.7916 28 27.5338V5.13384C27.9999 4.93481 27.8736 4.75771 27.6855 4.69284ZM2.33333 12.6005V27.0672H0.933333V9.33384H2.33333V12.6005ZM24.7333 12.1338H3.26667V11.2005H24.7333V12.1338ZM24.7333 10.2672H3.26667V9.33384H24.7333V10.2672ZM27.0667 27.0672H25.6667V9.33384H27.0667V27.0672ZM27.0667 8.40051H0.933333V5.46658L14 0.960911L27.0667 5.46658V8.40051Z" fill="#56A5E1"/>
<path d="M23.0752 20.1133L21.3486 19.2499L19.8086 16.1699C19.5717 15.696 19.0863 15.3975 18.5565 15.3999H9.44343C8.91271 15.3982 8.4272 15.6982 8.19136 16.1737L6.65136 19.2537L4.92469 20.117C4.7669 20.1959 4.66709 20.3569 4.66663 20.5333V27.0666C4.66663 27.5821 5.08447 27.9999 5.59996 27.9999H7.46663C7.98212 27.9999 8.39996 27.5821 8.39996 27.0666V25.6666H19.6V27.0666C19.6 27.5821 20.0178 27.9999 20.5333 27.9999H22.4C22.9155 27.9999 23.3333 27.5821 23.3333 27.0666V20.5333C23.3343 20.3555 23.2342 20.1926 23.0752 20.1133ZM9.02623 16.5913C9.10468 16.4328 9.2665 16.3327 9.44343 16.3333H18.5565C18.7334 16.3327 18.8952 16.4328 18.9737 16.5913L20.2449 19.1333H7.75503L9.02623 16.5913ZM7.46663 27.0666H5.59996V25.6666H7.46663V27.0666ZM22.4 27.0666H20.5333V25.6666H22.4V27.0666ZM22.4 24.7333H7.93329H5.59996V20.8217L7.11009 20.0666H20.8898L22.4 20.8217V24.7333Z" fill="#56A5E1"/>
<path d="M8.86666 20.9999H7.46666C6.95117 20.9999 6.53333 21.4178 6.53333 21.9333V22.8666C6.53333 23.3821 6.95117 23.7999 7.46666 23.7999H8.86666C9.38215 23.7999 9.79999 23.3821 9.79999 22.8666V21.9333C9.79999 21.4178 9.38215 20.9999 8.86666 20.9999ZM8.86666 22.8666H7.46666V21.9333H8.86666V22.8666Z" fill="#56A5E1"/>
<path d="M20.5333 20.9999H19.1333C18.6178 20.9999 18.2 21.4178 18.2 21.9333V22.8666C18.2 23.3821 18.6178 23.7999 19.1333 23.7999H20.5333C21.0488 23.7999 21.4666 23.3821 21.4666 22.8666V21.9333C21.4666 21.4178 21.0488 20.9999 20.5333 20.9999ZM20.5333 22.8666H19.1333V21.9333H20.5333V22.8666Z" fill="#56A5E1"/>
<path d="M16.3334 20.9999H11.6667C11.1512 20.9999 10.7334 21.4178 10.7334 21.9333V22.8666C10.7334 23.3821 11.1512 23.7999 11.6667 23.7999H16.3334C16.8489 23.7999 17.2667 23.3821 17.2667 22.8666V21.9333C17.2667 21.4178 16.8489 20.9999 16.3334 20.9999ZM16.3334 22.8666H11.6667V21.9333H16.3334V22.8666Z" fill="#56A5E1"/>
</g>
<defs>
<clipPath id="clip0">
<rect width="28" height="28" fill="white"/>
</clipPath>
</defs>
</svg>
