<svg width="150" height="150" viewBox="0 0 35 35" fill="none" xmlns="http://www.w3.org/2000/svg">
<path d="M34.4167 20.4167H33.25V12.1333C33.25 11.2583 32.55 10.5 31.6167 10.5H31.325C30.45 10.5 29.6917 11.2 29.6917 12.1333V20.4167H27.9417V19.25C27.9417 18.2583 27.1833 17.5 26.1917 17.5H8.75C7.75833 17.5 7 18.2583 7 19.25V20.4167H5.25V12.1333C5.25 11.2583 4.55 10.5 3.61667 10.5H3.38333C2.45 10.5 1.75 11.2 1.75 12.1333V20.4167H0.583333C0.233333 20.4167 0 20.65 0 21C0 21.35 0.233333 21.5833 0.583333 21.5833H1.16667V32.0833C1.16667 32.4333 1.4 32.6667 1.75 32.6667H2.33333V33.25C2.33333 33.6 2.56667 33.8333 2.91667 33.8333C3.26667 33.8333 3.5 33.6 3.5 33.25V32.6667H31.5V33.25C31.5 33.6 31.7333 33.8333 32.0833 33.8333C32.4333 33.8333 32.6667 33.6 32.6667 33.25V32.6667H33.25C33.6 32.6667 33.8333 32.4333 33.8333 32.0833V21.5833H34.4167C34.7667 21.5833 35 21.35 35 21C35 20.65 34.7667 20.4167 34.4167 20.4167ZM31.3833 11.6667H31.675C31.9083 11.6667 32.1417 11.8417 32.1417 12.1333V20.4167H30.975V12.1333H30.9167C30.9167 11.9 31.0917 11.6667 31.3833 11.6667ZM8.16667 19.25C8.16667 18.9 8.4 18.6667 8.75 18.6667H26.25C26.6 18.6667 26.8333 18.9 26.8333 19.25V20.4167H8.16667V19.25ZM2.91667 12.1333C2.91667 11.8417 3.09167 11.6667 3.38333 11.6667H3.675C3.90833 11.6667 4.08333 11.8417 4.08333 12.1333V20.4167H2.91667V12.1333ZM16.9167 31.5H2.33333V26.8333H16.9167V31.5ZM32.6667 31.5H18.0833V26.8333H32.6667V31.5ZM32.6667 25.6667H2.33333V21.5833H32.6667V25.6667Z" fill="#56A5E1"/>
<path d="M15.1667 28C14.8167 28 14.5834 28.2333 14.5834 28.5833V29.75C14.5834 30.1 14.8167 30.3333 15.1667 30.3333C15.5167 30.3333 15.75 30.1 15.75 29.75V28.5833C15.75 28.2333 15.5167 28 15.1667 28Z" fill="#56A5E1"/>
<path d="M19.8333 28C19.4833 28 19.25 28.2333 19.25 28.5833V29.75C19.25 30.1 19.4833 30.3333 19.8333 30.3333C20.1833 30.3333 20.4167 30.1 20.4167 29.75V28.5833C20.4167 28.2333 20.1833 28 19.8333 28Z" fill="#56A5E1"/>
<path d="M28 1.16669H6.99996C6.64996 1.16669 6.41663 1.40002 6.41663 1.75002V13.4167C6.41663 13.7667 6.64996 14 6.99996 14H28C28.35 14 28.5833 13.7667 28.5833 13.4167V1.75002C28.5833 1.40002 28.35 1.16669 28 1.16669ZM27.4166 12.8334H7.58329V2.33335H27.4166V12.8334Z" fill="#56A5E1"/>
<path d="M25.6667 10.5H25.0833C24.7333 10.5 24.5 10.7333 24.5 11.0833C24.5 11.4333 24.7333 11.6667 25.0833 11.6667H25.6667C26.0167 11.6667 26.25 11.4333 26.25 11.0833C26.25 10.7333 26.0167 10.5 25.6667 10.5Z" fill="#56A5E1"/>
<path d="M11.4917 3.675C11.2583 3.44167 10.9083 3.44167 10.675 3.675L8.925 5.425C8.69167 5.65833 8.69167 6.00833 8.925 6.24167C9.15833 6.475 9.50833 6.475 9.74167 6.24167L11.4917 4.49167C11.725 4.25833 11.725 3.90833 11.4917 3.675Z" fill="#56A5E1"/>
<path d="M14.4084 3.675C14.175 3.44167 13.825 3.44167 13.5917 3.675L9.50837 7.75833C9.27504 7.99167 9.27504 8.34167 9.50837 8.575C9.74171 8.80833 10.0917 8.80833 10.325 8.575L14.4084 4.49167C14.6417 4.25833 14.6417 3.90833 14.4084 3.675Z" fill="#56A5E1"/>
</svg>
