<svg width="150" height="150" viewBox="0 0 30 30" fill="none" xmlns="http://www.w3.org/2000/svg">
<path d="M29.449 26.7297H26.4042L25.665 19.7078L26.4831 20.9347L26.6857 21.9494C26.7836 22.4386 27.091 22.8549 27.5298 23.093C27.7784 23.2277 28.0514 23.2956 28.3259 23.2956C28.536 23.2956 28.7472 23.2557 28.9483 23.1753C29.3816 23.0021 29.725 22.6527 29.8912 22.2165C30.0569 21.7802 30.0324 21.2911 29.8238 20.8733L29.3965 20.0183C29.3951 20.0148 29.3921 20.0128 29.3901 20.0098C29.3891 20.0073 29.3891 20.0048 29.3881 20.0023L26.3933 14.5118C26.3378 14.41 26.248 14.3307 26.1407 14.2872L24.788 13.7462C25.8033 12.9216 26.4541 11.6648 26.4541 10.2582C26.4541 9.50601 26.256 8.7653 25.8916 8.10245L25.6341 5.52591C26.4377 5.1855 26.9533 4.51716 26.9533 3.76946C26.9533 2.69482 25.8866 1.81584 24.5559 1.77441C24.0254 0.853511 23.0416 0.275513 21.9619 0.275513C20.8823 0.275513 19.8985 0.853511 19.3679 1.77441C18.0372 1.81584 16.9706 2.69482 16.9706 3.76946C16.9706 4.51716 17.4862 5.1855 18.2898 5.52591L18.0322 8.10245C17.6679 8.7653 17.4697 9.50601 17.4697 10.2582C17.4697 11.6648 18.1206 12.9216 19.1363 13.7457L17.7837 14.2867C17.7038 14.3187 17.6334 14.3711 17.5795 14.4385L15.8949 16.5443L13.8595 14.9161L13.3159 14.0102C13.2236 13.856 13.1058 13.7252 12.9785 13.6059V12.2547C12.9785 11.6049 12.5597 11.0558 11.9802 10.8492V8.7608H12.4794C13.3049 8.7608 13.9768 8.08897 13.9768 7.2634V4.26859C13.9768 3.44302 13.3049 2.77119 12.4794 2.77119H10.4828C9.65726 2.77119 8.98543 3.44302 8.98543 4.26859V7.2634C8.98543 8.08897 9.65726 8.7608 10.4828 8.7608H10.982V10.8492C10.4025 11.0558 9.9837 11.6049 9.9837 12.2547V14.2513C9.9837 14.2518 9.9837 14.2528 9.9837 14.2533C9.85891 14.5503 9.80301 14.8742 9.84344 15.2056C9.91481 15.7831 10.2417 16.2863 10.7404 16.5857L11.6847 17.1523L15.003 20.0557C15.5605 20.5429 16.3776 20.5534 16.9476 20.0787L18.3427 18.9157L17.5196 26.7297H8.79376L9.37924 25.5587C10.3136 25.1978 10.981 24.2959 10.981 23.2357V22.1456C11.5605 21.939 11.9792 21.3899 11.9792 20.74C11.9792 19.9145 11.3074 19.2426 10.4818 19.2426H1.4974C0.671835 19.2426 0 19.9145 0 20.74C0 21.3899 0.418774 21.939 0.99827 22.1456V23.2357C0.99827 24.2959 1.66561 25.1978 2.59999 25.5587L3.18548 26.7297H0.499135C0.223612 26.7297 0 26.9533 0 27.2288V29.2253C0 29.5009 0.223612 29.7245 0.499135 29.7245H29.449C29.7245 29.7245 29.9481 29.5009 29.9481 29.2253V27.2288C29.9481 26.9533 29.7245 26.7297 29.449 26.7297ZM10.981 7.76253H10.4818C10.2068 7.76253 9.9827 7.53842 9.9827 7.2634V4.26859C9.9827 3.99357 10.2068 3.76946 10.4818 3.76946H10.981V7.76253ZM28.9309 21.319C29.0162 21.4897 29.0262 21.6824 28.9583 21.8611C28.8904 22.0393 28.7552 22.1771 28.578 22.2479C28.3918 22.3223 28.1827 22.3103 28.006 22.2145C27.8293 22.1187 27.7045 21.9504 27.665 21.7533L27.5363 21.1089L28.6828 20.8224L28.9309 21.319ZM25.6031 15.1472L28.2026 19.913L27.1734 20.17L25.4184 17.5376L24.6937 14.7834L25.6031 15.1472ZM24.5075 18.2444L25.401 26.7297H18.5234L19.4163 18.2444H24.5075ZM19.615 17.2461L20.3507 14.4484C20.3707 14.4559 20.3912 14.4614 20.4111 14.4684C20.5114 14.5053 20.6123 14.5408 20.7156 14.5707C20.755 14.5822 20.795 14.5912 20.8344 14.6012C20.9297 14.6261 21.0251 14.6501 21.1224 14.6686C21.1713 14.678 21.2207 14.6835 21.2696 14.691C21.36 14.705 21.4498 14.72 21.5417 14.729C21.6061 14.7349 21.6709 14.7354 21.7353 14.7389C21.8112 14.7429 21.8856 14.7504 21.9619 14.7504C22.0383 14.7504 22.1127 14.7429 22.1885 14.7389C22.2534 14.7354 22.3178 14.7349 22.3822 14.729C22.474 14.7205 22.5639 14.7055 22.6542 14.691C22.7031 14.6835 22.7526 14.678 22.8015 14.6686C22.8988 14.6501 22.9941 14.6256 23.0895 14.6012C23.1289 14.5907 23.1688 14.5822 23.2083 14.5707C23.3116 14.5408 23.4129 14.5058 23.5127 14.4684C23.5327 14.4609 23.5532 14.4559 23.5731 14.4484L24.3094 17.2461H19.615ZM17.9689 3.76946C17.9689 3.22839 18.6547 2.77119 19.4663 2.77119C19.4952 2.77119 19.5227 2.77468 19.5506 2.77768L19.631 2.78516C19.8411 2.79764 20.0428 2.68034 20.1276 2.48418C20.4431 1.74896 21.1633 1.27378 21.9619 1.27378C22.7605 1.27378 23.4808 1.74896 23.7968 2.48418C23.8811 2.68034 24.0858 2.80163 24.2934 2.78516L24.3738 2.77768C24.4012 2.77468 24.4287 2.77119 24.4576 2.77119C25.2692 2.77119 25.955 3.22839 25.955 3.76946C25.955 4.16827 25.5517 4.5496 24.9742 4.69735C24.7351 4.75824 24.5764 4.98485 24.6009 5.23042L24.9043 8.26167H19.0195L19.3225 5.23092C19.347 4.98535 19.1882 4.75874 18.9492 4.69785C18.3722 4.5496 17.9689 4.16827 17.9689 3.76946ZM18.468 10.2582C18.468 9.9198 18.5184 9.58338 18.6152 9.25994H25.3081C25.4055 9.58338 25.4559 9.9198 25.4559 10.2582C25.4559 11.6438 24.6428 12.8402 23.4708 13.4048C23.3575 13.4592 23.2417 13.5076 23.1244 13.549C23.1189 13.551 23.1134 13.553 23.1079 13.555C22.3642 13.815 21.5586 13.815 20.8149 13.555C20.8094 13.553 20.8039 13.551 20.7984 13.549C20.6812 13.5076 20.5659 13.4592 20.452 13.4048C19.2811 12.8402 18.468 11.6438 18.468 10.2582ZM11.9792 3.76946H12.4784C12.7534 3.76946 12.9775 3.99357 12.9775 4.26859V7.2634C12.9775 7.53842 12.7534 7.76253 12.4784 7.76253H11.9792V3.76946ZM11.4801 11.7556C11.7551 11.7556 11.9792 11.9797 11.9792 12.2547V13.1222C11.9762 13.1217 11.9727 13.1217 11.9698 13.1212C11.9578 13.1197 11.9473 13.1143 11.9353 13.1128C11.9079 13.1093 11.8809 13.1143 11.854 13.1118C11.7671 13.1048 11.6813 13.1038 11.5944 13.1088C11.551 13.1113 11.5081 13.1113 11.4656 13.1168C11.3628 13.1297 11.2625 13.1537 11.1632 13.1836C11.1207 13.1966 11.0798 13.2101 11.0384 13.2256C11.0194 13.2326 10.9999 13.237 10.9815 13.2445V12.2547H10.981C10.981 11.9797 11.2051 11.7556 11.4801 11.7556ZM11.254 15.7297C11.0199 15.5895 10.8667 15.3539 10.8337 15.0833C10.8118 14.9072 10.8482 14.7349 10.9261 14.5817C10.9281 14.5777 10.9316 14.5752 10.9335 14.5712C10.955 14.5303 10.9765 14.4954 10.9984 14.4629C11.0254 14.4255 11.0518 14.3876 11.0848 14.3546C11.1547 14.2842 11.236 14.2308 11.3214 14.1894C11.3284 14.1859 11.3354 14.1814 11.3423 14.1779C11.4277 14.1395 11.5185 14.1155 11.6114 14.106C11.6184 14.1055 11.6249 14.1045 11.6318 14.104C11.7222 14.0966 11.8135 14.1045 11.9034 14.125C11.9129 14.127 11.9223 14.129 11.9313 14.1315C12.0247 14.1565 12.1155 14.1949 12.1989 14.2518C12.2014 14.2533 12.2043 14.2543 12.2068 14.2558C12.3072 14.3257 12.3945 14.415 12.4599 14.5238L12.8487 15.1722L11.9024 16.1186L11.254 15.7297ZM16.3077 19.3115C16.1181 19.4692 15.845 19.4667 15.6594 19.304L12.709 16.7225L13.5131 15.9184L15.6599 17.6359C15.8745 17.8081 16.1889 17.7737 16.3611 17.5581L18.2753 15.1652L19.2292 14.7839L18.5239 17.4647L16.3077 19.3115ZM1.4974 21.2392C1.22238 21.2392 0.99827 21.0151 0.99827 20.74C0.99827 20.465 1.22238 20.2409 1.4974 20.2409H10.4818C10.7569 20.2409 10.981 20.465 10.981 20.74C10.981 21.0151 10.7569 21.2392 10.4818 21.2392H1.4974ZM1.99654 23.2357V22.2374H9.9827V23.2357C9.9827 24.0613 9.31086 24.7331 8.48529 24.7331H3.49394C2.66837 24.7331 1.99654 24.0613 1.99654 23.2357ZM8.17683 25.7314L7.67769 26.7297H6.48875V25.7314H8.17683ZM5.49048 25.7314V26.7297H4.30154L3.80241 25.7314H5.49048ZM28.9498 28.7262H0.99827V27.7279H3.99308H7.98616H17.9689H25.955H28.9498V28.7262Z" fill="#56A5E1"/>
<path d="M23.4593 20.2409H20.4645C20.1889 20.2409 19.9653 20.4645 19.9653 20.74V22.2374C19.9653 23.3385 20.8608 24.234 21.9619 24.234C23.063 24.234 23.9584 23.3385 23.9584 22.2374V20.74C23.9584 20.4645 23.7348 20.2409 23.4593 20.2409ZM22.9601 22.2374C22.9601 22.788 22.5124 23.2357 21.9619 23.2357C21.4113 23.2357 20.9636 22.788 20.9636 22.2374V21.2392H22.9601V22.2374Z" fill="#56A5E1"/>
<path d="M6.48875 15.2496H5.49048V17.7452H6.48875V15.2496Z" fill="#56A5E1"/>
<path d="M8.98435 16.2478H7.98608V18.2443H8.98435V16.2478Z" fill="#56A5E1"/>
<path d="M3.99302 16.2478H2.99475V18.2443H3.99302V16.2478Z" fill="#56A5E1"/>
<path d="M6.48875 13.2531H5.49048V14.2513H6.48875V13.2531Z" fill="#56A5E1"/>
<path d="M3.99302 14.2513H2.99475V15.2496H3.99302V14.2513Z" fill="#56A5E1"/>
<path d="M8.98435 14.2513H7.98608V15.2496H8.98435V14.2513Z" fill="#56A5E1"/>
</svg>
