<svg width="34" height="34" viewBox="0 0 34 34" fill="none" xmlns="http://www.w3.org/2000/svg">
<g clip-path="url(#clip0)">
<path d="M19.125 34H14.875C13.8834 34 12.75 33.15 12.75 31.45V28.475C12.75 27.0583 12.0417 25.7833 10.9084 24.7916C8.35837 22.8083 7.08337 19.975 7.08337 16.8583C7.22504 11.475 11.6167 7.22498 16.8584 7.08331C19.55 7.08331 22.1 8.07498 23.9417 9.91665C25.7834 11.7583 26.9167 14.3083 26.9167 17C26.9167 19.975 25.6417 22.8083 23.2334 24.65C21.9584 25.6416 21.25 27.2 21.25 28.6166V31.875C21.25 33.0083 20.2584 34 19.125 34ZM17 8.49998C12.4667 8.49998 8.64171 12.325 8.50004 16.8583C8.50004 19.55 9.63337 22.1 11.7584 23.6583C13.3167 24.9333 14.1667 26.6333 14.1667 28.475V31.45C14.1667 31.7333 14.1667 32.5833 14.875 32.5833H19.125C19.55 32.5833 19.8334 32.3 19.8334 31.875V28.6166C19.8334 26.775 20.825 24.7916 22.3834 23.5166C24.3667 21.9583 25.5 19.55 25.5 17C25.5 14.7333 24.65 12.6083 22.95 10.9083C21.3917 9.34998 19.2667 8.49998 17 8.49998Z" fill="#2156AE"/>
<path d="M20.5417 29.75H13.4583C13.0333 29.75 12.75 29.4667 12.75 29.0417C12.75 28.6167 13.0333 28.3334 13.4583 28.3334H20.5417C20.9667 28.3334 21.25 28.6167 21.25 29.0417C21.25 29.4667 20.9667 29.75 20.5417 29.75Z" fill="#2156AE"/>
<path d="M17 4.25C16.575 4.25 16.2916 3.96667 16.2916 3.54167V0.708333C16.2916 0.283333 16.575 0 17 0C17.425 0 17.7083 0.283333 17.7083 0.708333V3.54167C17.7083 3.96667 17.425 4.25 17 4.25Z" fill="#2156AE"/>
<path d="M26.4917 8.21668C26.35 8.21668 26.0667 8.21668 25.925 8.07501C25.6417 7.79168 25.6417 7.36668 25.925 7.08335L27.9084 5.10001C28.1917 4.81668 28.6167 4.81668 28.9 5.10001C29.1834 5.38335 29.1834 5.80835 28.9 6.09168L26.9167 8.07501C26.9167 8.07501 26.6334 8.21668 26.4917 8.21668Z" fill="#2156AE"/>
<path d="M33.2917 17.7084H30.4583C30.0333 17.7084 29.75 17.425 29.75 17C29.75 16.575 30.0333 16.2917 30.4583 16.2917H33.2917C33.7167 16.2917 34 16.575 34 17C34 17.425 33.7167 17.7084 33.2917 17.7084Z" fill="#2156AE"/>
<path d="M28.475 29.1833C28.3334 29.1833 28.05 29.1833 27.9084 29.0416L25.925 27.0583C25.6417 26.775 25.6417 26.35 25.925 26.0666C26.2084 25.7833 26.6334 25.7833 26.9167 26.0666L28.9 28.05C29.1834 28.3333 29.1834 28.7583 28.9 29.0416C28.9 29.1833 28.7584 29.1833 28.475 29.1833Z" fill="#2156AE"/>
<path d="M5.52502 29.1833C5.38335 29.1833 5.10002 29.1833 4.95835 29.0416C4.67502 28.7583 4.67502 28.3333 4.95835 28.05L6.94168 26.0666C7.22502 25.7833 7.65002 25.7833 7.93335 26.0666C8.21668 26.35 8.21668 26.775 7.93335 27.0583L5.95002 29.0416C5.80835 29.1833 5.66668 29.1833 5.52502 29.1833Z" fill="#2156AE"/>
<path d="M3.54167 17.7084H0.708333C0.283333 17.7084 0 17.425 0 17C0 16.575 0.283333 16.2917 0.708333 16.2917H3.54167C3.96667 16.2917 4.25 16.575 4.25 17C4.25 17.425 3.96667 17.7084 3.54167 17.7084Z" fill="#2156AE"/>
<path d="M7.50835 8.21668C7.36668 8.21668 7.08335 8.21668 6.94168 8.07501L4.95835 5.95002C4.67502 5.66668 4.67502 5.24168 4.95835 4.95835C5.24168 4.67502 5.66668 4.67502 5.95002 4.95835L7.93335 6.94168C8.21668 7.22502 8.21668 7.65001 7.93335 7.93335C7.79168 8.07501 7.65002 8.21668 7.50835 8.21668Z" fill="#2156AE"/>
<path d="M22.6666 17.7083C22.2416 17.7083 21.9583 17.425 21.9583 17C21.9583 14.3083 19.6916 12.0417 17 12.0417C16.575 12.0417 16.2916 11.7583 16.2916 11.3333C16.2916 10.9083 16.575 10.625 17 10.625C20.5416 10.625 23.375 13.4583 23.375 17C23.375 17.425 23.0916 17.7083 22.6666 17.7083Z" fill="#2156AE"/>
</g>
<defs>
<clipPath id="clip0">
<rect width="34" height="34" fill="white"/>
</clipPath>
</defs>
</svg>
