<svg width="42" height="78" viewBox="0 0 13 22" fill="none" xmlns="http://www.w3.org/2000/svg">
<path d="M12.4235 18.6286L4.76307 10.9897L12.4235 3.35089C12.6062 3.16862 12.7512 2.95223 12.8502 2.71408C12.9491 2.47593 13 2.22068 13 1.96291C13 1.70514 12.9491 1.44989 12.8502 1.21174C12.7512 0.973585 12.6062 0.757196 12.4235 0.574923C12.2407 0.39265 12.0237 0.248063 11.7848 0.149418C11.546 0.0507725 11.2901 -1.92056e-09 11.0316 0C10.7731 1.92056e-09 10.5171 0.0507725 10.2783 0.149418C10.0394 0.248063 9.82244 0.39265 9.63965 0.574923L0.577491 9.6116C-0.192496 10.3794 -0.192496 11.6197 0.577491 12.3876L9.63965 21.4242C9.82231 21.6068 10.0393 21.7516 10.2781 21.8503C10.5169 21.9491 10.773 22 11.0316 22C11.2901 22 11.5462 21.9491 11.785 21.8503C12.0238 21.7516 12.2408 21.6068 12.4235 21.4242C13.1737 20.6564 13.1934 19.3964 12.4235 18.6286Z" fill="#194F83"/>
</svg>
