<svg width="150" height="150" viewBox="0 0 44 44" fill="none" xmlns="http://www.w3.org/2000/svg">
<path d="M33.3437 11H23.7187C23.3984 10.9999 23.0812 11.0639 22.786 11.1884C22.4908 11.3128 22.2235 11.4951 22 11.7245C21.7764 11.4951 21.5091 11.3128 21.2139 11.1884C20.9187 11.0639 20.6016 10.9999 20.2812 11H10.6562C10.0182 11.0007 9.40663 11.2545 8.95553 11.7056C8.50443 12.1567 8.25068 12.7683 8.24995 13.4063V15.0836C8.02485 14.6991 7.68115 14.398 7.27041 14.2255C6.85968 14.0529 6.40406 14.0182 5.97192 14.1265L3.19502 14.8207C2.67195 14.9485 2.22011 15.2769 1.93702 15.735C1.65392 16.193 1.56227 16.744 1.68183 17.2691L1.94773 18.4656C2.48048 20.8651 2.74948 23.3156 2.74995 25.7734V27.8438C2.75068 28.4817 3.00443 29.0933 3.45553 29.5444C3.90663 29.9955 4.51825 30.2493 5.1562 30.25H5.30694L4.83299 32.1458C4.80766 32.2471 4.80575 32.3529 4.82743 32.4551C4.8491 32.5573 4.89379 32.6533 4.95808 32.7356C5.02238 32.8179 5.10459 32.8846 5.19849 32.9304C5.29238 32.9762 5.39548 33 5.49995 33H7.56245C7.66918 33 7.77445 32.9752 7.86991 32.9274C7.96537 32.8797 8.04841 32.8104 8.11245 32.725L9.9687 30.25H35.4062L37.2625 32.725C37.3265 32.8104 37.4095 32.8797 37.505 32.9274C37.6005 32.9752 37.7057 33 37.8125 33H39.875C39.9794 33 40.0825 32.9762 40.1764 32.9304C40.2703 32.8846 40.3525 32.8179 40.4168 32.7356C40.4811 32.6533 40.5258 32.5573 40.5475 32.4551C40.5692 32.3529 40.5673 32.2471 40.5419 32.1458L39.9946 29.9564C40.3742 29.7494 40.6911 29.444 40.912 29.0722C41.1329 28.7005 41.2497 28.2762 41.25 27.8438V25.7734C41.2504 23.3156 41.5194 20.8651 42.0522 18.4656L42.3181 17.2691C42.4377 16.744 42.3461 16.193 42.063 15.7349C41.7799 15.2769 41.328 14.9485 40.8049 14.8207L38.028 14.1265C37.5958 14.0182 37.1402 14.0529 36.7295 14.2255C36.3188 14.398 35.9751 14.6991 35.75 15.0836V13.4063C35.7492 12.7683 35.4955 12.1567 35.0444 11.7056C34.5933 11.2545 33.9817 11.0007 33.3437 11ZM22.6875 13.4063C22.6877 13.1328 22.7965 12.8707 22.9898 12.6774C23.1832 12.484 23.4453 12.3753 23.7187 12.375H33.3437C33.6171 12.3753 33.8792 12.484 34.0726 12.6774C34.2659 12.8707 34.3747 13.1328 34.375 13.4063V19.4826C34.0529 19.3292 33.7005 19.2497 33.3437 19.25H23.7187C23.3619 19.2497 23.0096 19.3292 22.6875 19.4826V13.4063ZM22.6875 21.6562C22.6877 21.3828 22.7965 21.1207 22.9898 20.9274C23.1832 20.734 23.4453 20.6253 23.7187 20.625H33.3437C33.6171 20.6253 33.8792 20.734 34.0726 20.9274C34.2659 21.1207 34.3747 21.3828 34.375 21.6562V23.375H22.6875V21.6562ZM9.62495 13.4063C9.62525 13.1328 9.73399 12.8707 9.92733 12.6774C10.1207 12.484 10.3828 12.3753 10.6562 12.375H20.2812C20.5546 12.3753 20.8167 12.484 21.0101 12.6774C21.2034 12.8707 21.3122 13.1328 21.3125 13.4063V19.4826C20.9904 19.3292 20.638 19.2497 20.2812 19.25H10.6562C10.2994 19.2497 9.94705 19.3292 9.62495 19.4826V13.4063ZM9.62495 21.6562C9.62525 21.3828 9.73399 21.1207 9.92733 20.9274C10.1207 20.734 10.3828 20.6253 10.6562 20.625H20.2812C20.5546 20.6253 20.8167 20.734 21.0101 20.9274C21.2034 21.1207 21.3122 21.3828 21.3125 21.6562V23.375H9.62495V21.6562ZM7.2187 31.625H6.38047L6.72422 30.25H8.24995L7.2187 31.625ZM38.1562 31.625L37.125 30.25H38.6507L38.9944 31.625H38.1562ZM36.1076 20.095L36.8513 16.0044C36.8682 15.9119 36.9038 15.8238 36.956 15.7456C37.0083 15.6674 37.076 15.6007 37.155 15.5498C37.2341 15.4988 37.3227 15.4645 37.4155 15.4492C37.5083 15.4338 37.6032 15.4377 37.6945 15.4605L40.4714 16.1547C40.6458 16.1973 40.7965 16.3068 40.8909 16.4595C40.9853 16.6123 41.0158 16.796 40.9758 16.9711L40.7099 18.1672C40.1554 20.6646 39.8754 23.2152 39.875 25.7734V27.8438C39.8747 28.1172 39.7659 28.3793 39.5726 28.5726C39.3792 28.766 39.1171 28.8747 38.8437 28.875H5.1562C4.88279 28.8747 4.62066 28.766 4.42733 28.5726C4.23399 28.3793 4.12525 28.1172 4.12495 27.8438V25.7734C4.12449 23.2152 3.8445 20.6646 3.28998 18.1672L3.02409 16.9709C2.98419 16.7958 3.01473 16.6121 3.10911 16.4593C3.20348 16.3066 3.35414 16.1971 3.52855 16.1544C3.52855 16.1544 6.41819 15.4393 6.47423 15.4393C6.63488 15.44 6.79021 15.4969 6.91336 15.6C7.03651 15.7032 7.11971 15.8462 7.14858 16.0042L7.89228 20.0949C8.13003 21.404 8.24974 22.7319 8.24995 24.0625C8.24995 24.2448 8.32239 24.4197 8.45132 24.5486C8.58025 24.6776 8.75512 24.75 8.93745 24.75H35.0625C35.2448 24.75 35.4197 24.6776 35.5486 24.5486C35.6775 24.4197 35.75 24.2448 35.75 24.0625V24.0612C35.7502 22.7311 35.8699 21.4037 36.1076 20.095Z" fill="#56A5E1"/>
<path d="M13.0625 16.5H13.75C13.9323 16.5 14.1072 16.4276 14.2361 16.2986C14.3651 16.1697 14.4375 15.9948 14.4375 15.8125C14.4375 15.6302 14.3651 15.4553 14.2361 15.3264C14.1072 15.1974 13.9323 15.125 13.75 15.125H13.0625C12.8802 15.125 12.7053 15.1974 12.5764 15.3264C12.4474 15.4553 12.375 15.6302 12.375 15.8125C12.375 15.9948 12.4474 16.1697 12.5764 16.2986C12.7053 16.4276 12.8802 16.5 13.0625 16.5Z" fill="#56A5E1"/>
<path d="M17.1875 16.5H17.875C18.0573 16.5 18.2322 16.4276 18.3611 16.2986C18.4901 16.1697 18.5625 15.9948 18.5625 15.8125C18.5625 15.6302 18.4901 15.4553 18.3611 15.3264C18.2322 15.1974 18.0573 15.125 17.875 15.125H17.1875C17.0052 15.125 16.8303 15.1974 16.7014 15.3264C16.5724 15.4553 16.5 15.6302 16.5 15.8125C16.5 15.9948 16.5724 16.1697 16.7014 16.2986C16.8303 16.4276 17.0052 16.5 17.1875 16.5Z" fill="#56A5E1"/>
<path d="M26.125 16.5H26.8125C26.9948 16.5 27.1697 16.4276 27.2986 16.2986C27.4276 16.1697 27.5 15.9948 27.5 15.8125C27.5 15.6302 27.4276 15.4553 27.2986 15.3264C27.1697 15.1974 26.9948 15.125 26.8125 15.125H26.125C25.9427 15.125 25.7678 15.1974 25.6389 15.3264C25.5099 15.4553 25.4375 15.6302 25.4375 15.8125C25.4375 15.9948 25.5099 16.1697 25.6389 16.2986C25.7678 16.4276 25.9427 16.5 26.125 16.5Z" fill="#56A5E1"/>
<path d="M30.25 16.5H30.9375C31.1198 16.5 31.2947 16.4276 31.4236 16.2986C31.5526 16.1697 31.625 15.9948 31.625 15.8125C31.625 15.6302 31.5526 15.4553 31.4236 15.3264C31.2947 15.1974 31.1198 15.125 30.9375 15.125H30.25C30.0677 15.125 29.8928 15.1974 29.7639 15.3264C29.6349 15.4553 29.5625 15.6302 29.5625 15.8125C29.5625 15.9948 29.6349 16.1697 29.7639 16.2986C29.8928 16.4276 30.0677 16.5 30.25 16.5Z" fill="#56A5E1"/>
</svg>
