<svg width="30" height="34" viewBox="0 0 30 34" fill="none" xmlns="http://www.w3.org/2000/svg">
<path d="M2.42857 34H17C17.6439 33.9994 18.2612 33.7433 18.7166 33.288C19.1719 32.8327 19.4279 32.2153 19.4286 31.5714V27.9286H17V31.5714H2.42857V2.42857H17V6.07143H19.4286V2.42857C19.4279 1.78467 19.1719 1.16733 18.7166 0.712022C18.2612 0.256716 17.6439 0.000642936 17 0H2.42857C1.78467 0.000642936 1.16733 0.256716 0.712022 0.712022C0.256716 1.16733 0.000642936 1.78467 0 2.42857V31.5714C0.000642936 32.2153 0.256716 32.8327 0.712022 33.288C1.16733 33.7433 1.78467 33.9994 2.42857 34Z" fill="#2156AE"/>
<path d="M20.1401 22.5688L24.4946 18.2144H7.28571V15.7858H24.4946L20.1401 11.4314L21.8571 9.71436L29.1428 17.0001L21.8571 24.2858L20.1401 22.5688Z" fill="#2156AE"/>
</svg>
