<svg width="42" height="72" viewBox="0 0 13 22" fill="none" xmlns="http://www.w3.org/2000/svg">
<path d="M0.576545 3.37142L8.23693 11.0103L0.576545 18.6491C0.393758 18.8314 0.248764 19.0478 0.14984 19.2859C0.0509167 19.5241 1.92598e-09 19.7793 0 20.0371C-1.92597e-09 20.2949 0.0509167 20.5501 0.14984 20.7883C0.248764 21.0264 0.393758 21.2428 0.576545 21.4251C0.759332 21.6073 0.976331 21.7519 1.21515 21.8506C1.45398 21.9492 1.70995 22 1.96845 22C2.22695 22 2.48291 21.9492 2.72174 21.8506C2.96056 21.7519 3.17756 21.6073 3.36035 21.4251L12.4225 12.3884C13.1925 11.6206 13.1925 10.3803 12.4225 9.61243L3.36035 0.575758C3.17769 0.393246 2.96074 0.248447 2.7219 0.149651C2.48306 0.0508547 2.22702 8.68344e-07 1.96845 8.68344e-07C1.70987 8.68344e-07 1.45384 0.0508547 1.21499 0.149651C0.976153 0.248447 0.759197 0.393246 0.576545 0.575758C-0.1737 1.34358 -0.193443 2.60359 0.576545 3.37142Z" fill="#194F83"/>
</svg>
