<svg width="150" height="150" viewBox="0 0 34 34" fill="none" xmlns="http://www.w3.org/2000/svg">
<g clip-path="url(#clip0)">
<path d="M1.92334 10.1436V11.5718C1.92334 11.8468 2.14633 12.0698 2.42139 12.0698C2.69644 12.0698 2.91943 11.8468 2.91943 11.5718V10.1436C2.91943 9.8685 2.69644 9.64551 2.42139 9.64551C2.14633 9.64551 1.92334 9.86843 1.92334 10.1436Z" fill="#56A5E1"/>
<path d="M2.42139 18.3938C2.69644 18.3938 2.91943 18.1708 2.91943 17.8958V16.4676C2.91943 16.1925 2.69644 15.9695 2.42139 15.9695C2.14633 15.9695 1.92334 16.1925 1.92334 16.4676V17.8958C1.92334 18.1708 2.14633 18.3938 2.42139 18.3938Z" fill="#56A5E1"/>
<path d="M32.8394 18.0052H31.5036C31.5516 17.8623 31.5805 17.7118 31.5882 17.5574H32.1501C32.7978 17.5574 33.3248 17.0304 33.3248 16.3826V15.793C33.3248 15.1453 32.7978 14.6183 32.1501 14.6183H31.5903V14.5245C31.5903 14.1704 31.3022 13.8822 30.948 13.8822H28.0736C27.7195 13.8822 27.4313 14.1703 27.4313 14.5245V17.4741C27.4313 17.6576 27.4614 17.8366 27.518 18.0051H26.6539V10.1007C26.6539 9.49273 26.1593 8.99807 25.5513 8.99807H13.121V7.26042C13.121 6.98536 12.898 6.76237 12.623 6.76237C12.3479 6.76237 12.1249 6.98536 12.1249 7.26042V13.8253H0.996094V3.47486C0.996094 3.23972 1.18741 3.0484 1.42255 3.0484H11.6985C11.9337 3.0484 12.1249 3.23972 12.1249 3.47486V4.90299C12.1249 5.17805 12.3479 5.40104 12.623 5.40104C12.898 5.40104 13.121 5.17805 13.121 4.90299V3.47486C13.121 2.69047 12.4829 2.05231 11.6985 2.05231H1.42255C0.638164 2.05231 0 2.69047 0 3.47486V30.5252C0 31.3096 0.638164 31.9477 1.42255 31.9477H12.623C12.6351 31.9477 12.647 31.9473 12.6588 31.9464H32.1063C32.7782 31.9464 33.3248 31.3998 33.3248 30.7279V28.5264C33.3248 28.2514 33.1019 28.0284 32.8268 28.0284C32.5517 28.0284 32.3288 28.2514 32.3288 28.5264V30.7279C32.3288 30.8505 32.229 30.9503 32.1063 30.9503H13.121V21.0896H32.3288V26.1918C32.3288 26.4669 32.5517 26.6899 32.8268 26.6899C33.1019 26.6899 33.3248 26.4669 33.3248 26.1918V20.9831C33.7231 20.7989 34 20.3956 34 19.9289V19.1658C34 18.5259 33.4793 18.0052 32.8394 18.0052ZM31.5903 15.6145H32.1501C32.2485 15.6145 32.3287 15.6946 32.3287 15.7931V16.3827C32.3287 16.4812 32.2485 16.5613 32.1501 16.5613H31.5903V15.6145ZM12.1249 30.9516H1.42255C1.18741 30.9516 0.996094 30.7603 0.996094 30.5252V14.8214H12.1249V30.9516ZM28.4274 14.8783H30.5942V17.4742C30.5942 17.6842 30.4963 17.8793 30.3331 18.0052H28.6884C28.5252 17.8793 28.4274 17.6842 28.4274 17.4742V14.8783ZM13.121 9.99416H25.5513C25.61 9.99416 25.6578 10.042 25.6578 10.1007V18.0052H13.121V9.99416ZM33.0039 19.9289C33.0039 20.0197 32.9301 20.0936 32.8394 20.0936H13.121V19.0014H32.8394C32.9301 19.0014 33.0039 19.0752 33.0039 19.1659V19.9289Z" fill="#56A5E1"/>
<path d="M21.3832 11.1812H15.1718C14.7498 11.1812 14.4065 11.5245 14.4065 11.9465V16.0105C14.4065 16.4326 14.7498 16.7759 15.1718 16.7759H21.3832C21.8052 16.7759 22.1485 16.4326 22.1485 16.0105V11.9465C22.1486 11.5245 21.8052 11.1812 21.3832 11.1812ZM21.1525 15.7799H15.4027V12.1772H21.1525V15.7799Z" fill="#56A5E1"/>
<path d="M23.9859 12.6975C24.2671 12.6975 24.4951 12.4695 24.4951 12.1883C24.4951 11.9071 24.2671 11.6792 23.9859 11.6792C23.7048 11.6792 23.4768 11.9071 23.4768 12.1883C23.4768 12.4695 23.7048 12.6975 23.9859 12.6975Z" fill="#56A5E1"/>
<path d="M23.9859 14.7373C24.2671 14.7373 24.4951 14.5093 24.4951 14.2281C24.4951 13.9469 24.2671 13.719 23.9859 13.719C23.7048 13.719 23.4768 13.9469 23.4768 14.2281C23.4768 14.5093 23.7048 14.7373 23.9859 14.7373Z" fill="#56A5E1"/>
</g>
<defs>
<clipPath id="clip0">
<rect width="34" height="34" fill="white"/>
</clipPath>
</defs>
</svg>
