<svg width="20" height="18" viewBox="0 0 31 31" fill="none" xmlns="http://www.w3.org/2000/svg">
<g clip-path="url(#clip0)">
<path d="M24.2188 31H6.78125C5.17958 31 3.875 29.6967 3.875 28.0938V14.5312C3.875 12.9283 5.17958 11.625 6.78125 11.625H24.2188C25.8204 11.625 27.125 12.9283 27.125 14.5312V28.0938C27.125 29.6967 25.8204 31 24.2188 31ZM6.78125 13.5625C6.24779 13.5625 5.8125 13.9965 5.8125 14.5312V28.0938C5.8125 28.6285 6.24779 29.0625 6.78125 29.0625H24.2188C24.7522 29.0625 25.1875 28.6285 25.1875 28.0938V14.5312C25.1875 13.9965 24.7522 13.5625 24.2188 13.5625H6.78125Z" fill="black"/>
<path d="M22.2812 13.5625C21.7465 13.5625 21.3125 13.1285 21.3125 12.5938V7.75C21.3125 4.54537 18.7046 1.9375 15.5 1.9375C12.2954 1.9375 9.6875 4.54537 9.6875 7.75V12.5938C9.6875 13.1285 9.2535 13.5625 8.71875 13.5625C8.184 13.5625 7.75 13.1285 7.75 12.5938V7.75C7.75 3.47587 11.2259 0 15.5 0C19.7741 0 23.25 3.47587 23.25 7.75V12.5938C23.25 13.1285 22.816 13.5625 22.2812 13.5625Z" fill="black"/>
<path d="M15.5 21.9583C14.0753 21.9583 12.9166 20.7997 12.9166 19.375C12.9166 17.9502 14.0753 16.7916 15.5 16.7916C16.9247 16.7916 18.0833 17.9502 18.0833 19.375C18.0833 20.7997 16.9247 21.9583 15.5 21.9583ZM15.5 18.7291C15.1447 18.7291 14.8541 19.0185 14.8541 19.375C14.8541 19.7315 15.1447 20.0208 15.5 20.0208C15.8552 20.0208 16.1458 19.7315 16.1458 19.375C16.1458 19.0185 15.8552 18.7291 15.5 18.7291Z" fill="black"/>
<path d="M15.5 25.8333C14.9652 25.8333 14.5312 25.3993 14.5312 24.8646V21.3125C14.5312 20.7777 14.9652 20.3438 15.5 20.3438C16.0347 20.3438 16.4688 20.7777 16.4688 21.3125V24.8646C16.4688 25.3993 16.0347 25.8333 15.5 25.8333Z" fill="black"/>
</g>
<defs>
<clipPath id="clip0">
<rect width="31" height="31" fill="white"/>
</clipPath>
</defs>
</svg>
