<svg width="32" height="32" viewBox="0 0 32 32" fill="none" xmlns="http://www.w3.org/2000/svg">
<path fill-rule="evenodd" clip-rule="evenodd" d="M16 0C16.4715 0 16.9237 0.187301 17.2571 0.520699C17.5905 0.854097 17.7778 1.30628 17.7778 1.77778V16C17.7778 16.4715 17.5905 16.9237 17.2571 17.2571C16.9237 17.5905 16.4715 17.7778 16 17.7778H1.77778C1.30628 17.7778 0.854097 17.5905 0.520699 17.2571C0.187301 16.9237 0 16.4715 0 16C0 15.5285 0.187301 15.0763 0.520699 14.7429C0.854097 14.4095 1.30628 14.2222 1.77778 14.2222H14.2222V1.77778C14.2222 1.30628 14.4095 0.854097 14.7429 0.520699C15.0763 0.187301 15.5285 0 16 0V0Z" fill="#2156AE"/>
<path fill-rule="evenodd" clip-rule="evenodd" d="M14.2222 15.9999C14.2222 15.5284 14.4095 15.0763 14.7429 14.7429C15.0763 14.4095 15.5285 14.2222 16 14.2222H30.2222C30.6937 14.2222 31.1459 14.4095 31.4793 14.7429C31.8127 15.0763 32 15.5284 32 15.9999C32 16.4714 31.8127 16.9236 31.4793 17.257C31.1459 17.5904 30.6937 17.7777 30.2222 17.7777H17.7778V30.2222C17.7778 30.6937 17.5905 31.1459 17.2571 31.4792C16.9237 31.8126 16.4715 31.9999 16 31.9999C15.5285 31.9999 15.0763 31.8126 14.7429 31.4792C14.4095 31.1459 14.2222 30.6937 14.2222 30.2222V15.9999Z" fill="#2156AE"/>
</svg>
