<svg width="46" height="46" viewBox="0 0 46 46" fill="none" xmlns="http://www.w3.org/2000/svg">
<path d="M23 21.7222C24.769 21.7222 26.4983 21.1976 27.9693 20.2148C29.4402 19.232 30.5866 17.8351 31.2636 16.2007C31.9406 14.5663 32.1177 12.7679 31.7726 11.0328C31.4274 9.29775 30.5756 7.704 29.3247 6.4531C28.0738 5.2022 26.48 4.35032 24.745 4.0052C23.0099 3.66007 21.2115 3.8372 19.5771 4.51419C17.9427 5.19117 16.5458 6.3376 15.563 7.80851C14.5801 9.27942 14.0555 11.0087 14.0555 12.7778C14.0555 15.15 14.9979 17.425 16.6753 19.1025C18.3527 20.7799 20.6278 21.7222 23 21.7222ZM23 6.38889C24.2636 6.38889 25.4988 6.76359 26.5495 7.46561C27.6001 8.16763 28.419 9.16544 28.9025 10.3329C29.3861 11.5003 29.5126 12.7849 29.2661 14.0242C29.0196 15.2635 28.4111 16.4019 27.5176 17.2954C26.6241 18.1889 25.4857 18.7974 24.2464 19.0439C23.0071 19.2904 21.7225 19.1639 20.5551 18.6803C19.3876 18.1968 18.3898 17.3779 17.6878 16.3273C16.9858 15.2766 16.6111 14.0414 16.6111 12.7778C16.6111 11.0833 17.2842 9.4583 18.4824 8.26015C19.6805 7.062 21.3055 6.38889 23 6.38889V6.38889Z" fill="#2156AE"/>
<path d="M38.9339 31.1395C36.8848 28.9736 34.4154 27.2485 31.6768 26.0695C28.9383 24.8905 25.988 24.2824 23.0064 24.2824C20.0248 24.2824 17.0746 24.8905 14.336 26.0695C11.5974 27.2485 9.12808 28.9736 7.07892 31.1395C6.63465 31.614 6.38791 32.24 6.38892 32.89V39.6111C6.38892 40.2889 6.65816 40.9389 7.13742 41.4182C7.61668 41.8974 8.2667 42.1667 8.94447 42.1667H37.0556C37.7334 42.1667 38.3834 41.8974 38.8626 41.4182C39.3419 40.9389 39.6111 40.2889 39.6111 39.6111V32.89C39.6156 32.2417 39.3735 31.6159 38.9339 31.1395V31.1395ZM37.0556 39.6111H8.94447V32.8772C10.7554 30.9704 12.9353 29.4519 15.3517 28.4143C17.7681 27.3767 20.3703 26.8416 23 26.8416C25.6298 26.8416 28.232 27.3767 30.6483 28.4143C33.0647 29.4519 35.2447 30.9704 37.0556 32.8772V39.6111Z" fill="#2156AE"/>
</svg>
