<svg width="150" height="150" viewBox="0 0 33 33" fill="none" xmlns="http://www.w3.org/2000/svg">
<path d="M27.4999 0H5.49995C5.19621 0 4.94995 0.246262 4.94995 0.55V2.75C4.94995 3.05374 5.19621 3.3 5.49995 3.3H6.04995V15.95C6.04995 16.2537 6.29621 16.5 6.59995 16.5H7.7467C7.79895 17.2402 7.90593 17.9756 8.0668 18.7H7.14995C6.23867 18.7 5.49995 19.4387 5.49995 20.35V21.45C5.49995 21.7537 5.74621 22 6.04995 22H6.7391C7.23094 24.9079 8.99506 27.4447 11.5499 28.9179V32.45C11.5499 32.7537 11.7962 33 12.0999 33H20.8999C21.2037 33 21.4499 32.7537 21.4499 32.45V28.9179C24.0049 27.4447 25.769 24.908 26.2608 22H26.9499C27.2537 22 27.4999 21.7537 27.4999 21.45V20.35C27.4999 19.4387 26.7612 18.7 25.8499 18.7H24.9331C25.094 17.9756 25.2011 17.2402 25.2532 16.5H26.3999C26.7037 16.5 26.9499 16.2537 26.9499 15.95V3.3H27.4999C27.8037 3.3 28.0499 3.05374 28.0499 2.75V0.55C28.0499 0.246262 27.8037 0 27.4999 0ZM20.3499 31.9H12.6499V29.4723C15.115 30.4937 17.8849 30.4937 20.3499 29.4723V31.9ZM20.6414 28.1149C18.0542 29.494 14.9501 29.494 12.3628 28.1149C10.0129 26.8633 8.35603 24.6151 7.85615 22H25.1437C24.6449 24.6143 22.9897 26.8623 20.6414 28.1149ZM25.8499 19.8C26.1537 19.8 26.3999 20.0463 26.3999 20.35V20.9H6.59995V20.35C6.59995 20.0463 6.84621 19.8 7.14995 19.8H25.8499ZM16.4999 6.05C12.9222 6.05 9.89995 10.3317 9.89995 15.4C9.89995 15.5931 9.90545 15.7795 9.9115 15.9759C9.9247 16.2509 9.94835 16.5259 9.97805 16.7926C9.98685 16.8757 9.99895 16.9576 10.0094 17.039C10.0341 17.2304 10.0644 17.4207 10.0958 17.6088C10.1112 17.6952 10.1266 17.7815 10.1436 17.8673C10.1835 18.0697 10.2288 18.2699 10.2794 18.4679C10.2943 18.5268 10.3069 18.5867 10.3229 18.645C10.3273 18.6632 10.3311 18.6819 10.3361 18.7H9.19595C8.97361 17.7932 8.84464 16.866 8.81095 15.933C8.80545 15.757 8.79995 15.576 8.79995 15.4C8.79995 9.63765 12.2539 4.95 16.4999 4.95C20.7459 4.95 24.1999 9.63765 24.1999 15.4C24.1999 15.576 24.1944 15.757 24.1889 15.9291C24.1555 16.8635 24.0265 17.792 23.8039 18.7H22.6638C22.6687 18.6819 22.6726 18.6626 22.6775 18.645C22.6929 18.5873 22.705 18.5284 22.7199 18.4701C22.7699 18.271 22.8161 18.0697 22.8563 17.8651C22.8733 17.7804 22.8887 17.6946 22.9036 17.6088C22.9369 17.4193 22.9661 17.2274 22.991 17.0335C23.0015 16.9527 23.013 16.8718 23.0218 16.7899C23.0515 16.5187 23.0768 16.2448 23.0884 15.9649C23.0944 15.7795 23.0999 15.5931 23.0999 15.4C23.0999 10.3317 20.0777 6.05 16.4999 6.05ZM21.9999 15.3995C21.9999 15.581 21.9944 15.7569 21.9895 15.9241C21.9774 16.1854 21.9554 16.4428 21.9268 16.698C21.9174 16.7822 21.9037 16.863 21.8927 16.9471C21.8696 17.1177 21.8454 17.2876 21.8157 17.4548C21.7981 17.5511 21.7777 17.6451 21.7607 17.7403C21.7293 17.8921 21.6963 18.0433 21.6584 18.1918C21.6342 18.2897 21.6072 18.386 21.5803 18.4822C21.5594 18.5559 21.5357 18.6274 21.5137 18.7022H11.4889C11.4669 18.6296 11.4432 18.5581 11.4223 18.4822C11.3954 18.386 11.3673 18.2897 11.3437 18.1918C11.3063 18.0433 11.2733 17.8926 11.2419 17.7408C11.2221 17.6462 11.2018 17.5516 11.1842 17.4559C11.1545 17.2909 11.1292 17.1199 11.1072 16.9499C11.0962 16.8674 11.0824 16.7849 11.0731 16.7024C11.0445 16.4483 11.023 16.192 11.0109 15.9324C11.0054 15.7564 10.9999 15.5804 10.9999 15.3995C10.9999 10.9274 13.5189 7.14945 16.4999 7.14945C19.4809 7.14945 21.9999 10.9274 21.9999 15.3995ZM25.8499 15.4H25.2999C25.2999 9.03155 21.352 3.85 16.4999 3.85C11.6478 3.85 7.69995 9.03155 7.69995 15.4H7.14995V3.3H25.8499V15.4ZM26.9499 2.2H6.04995V1.1H26.9499V2.2Z" fill="#56A5E1"/>
</svg>
