<svg width="900"  viewBox="0 0 540 160" fill="none" xmlns="http://www.w3.org/2000/svg">
<path d="M15.75 24.5H2.25C1.01 24.5 0 23.491 0 22.25V11.75C0 10.509 1.01 9.5 2.25 9.5H15.75C16.99 9.5 18 10.509 18 11.75V22.25C18 23.491 16.99 24.5 15.75 24.5ZM2.25 11C1.837 11 1.5 11.336 1.5 11.75V22.25C1.5 22.664 1.837 23 2.25 23H15.75C16.163 23 16.5 22.664 16.5 22.25V11.75C16.5 11.336 16.163 11 15.75 11H2.25Z" fill="#585858"/>
<path d="M14.25 11C13.836 11 13.5 10.664 13.5 10.25V6.49998C13.5 4.01899 11.481 2 9 2C6.519 2 4.5 4.01899 4.5 6.49998V10.25C4.5 10.664 4.164 11 3.75 11C3.336 11 3 10.664 3 10.25V6.49998C3 3.19099 5.691 0.5 9 0.5C12.309 0.5 15 3.19099 15 6.49998V10.25C15 10.664 14.664 11 14.25 11Z" fill="#585858"/>
<path d="M9 17.5C7.897 17.5 7 16.603 7 15.5C7 14.397 7.897 13.5 9 13.5C10.103 13.5 11 14.397 11 15.5C11 16.603 10.103 17.5 9 17.5ZM9 15C8.725 15 8.5 15.224 8.5 15.5C8.5 15.776 8.725 16 9 16C9.275 16 9.5 15.776 9.5 15.5C9.5 15.224 9.275 15 9 15Z" fill="#585858"/>
<path d="M9 20.5C8.586 20.5 8.25 20.164 8.25 19.75V17C8.25 16.586 8.586 16.25 9 16.25C9.414 16.25 9.75 16.586 9.75 17V19.75C9.75 20.164 9.414 20.5 9 20.5Z" fill="#585858"/>
</svg>
