<svg width="19" height="17" viewBox="0 0 19 17" fill="none" xmlns="http://www.w3.org/2000/svg">
<path d="M17.8125 7.28658H3.72875L8.03938 1.99277C8.24094 1.74482 8.33791 1.42515 8.30896 1.10409C8.28001 0.783025 8.12751 0.486874 7.885 0.280781C7.64249 0.0746885 7.32985 -0.0244635 7.01584 0.00513779C6.70183 0.0347391 6.41219 0.190669 6.21062 0.438624L0.273125 7.72368C0.233178 7.78163 0.197457 7.8425 0.16625 7.90581C0.16625 7.96652 0.16625 8.00295 0.0831252 8.06365C0.0293 8.20287 0.00111758 8.35106 0 8.50076C0.00111758 8.65045 0.0293 8.79865 0.0831252 8.93786C0.0831252 8.99857 0.0831248 9.035 0.16625 9.09571C0.197457 9.15901 0.233178 9.21989 0.273125 9.27783L6.21062 16.5629C6.32228 16.7 6.46209 16.8102 6.62013 16.8857C6.77817 16.9613 6.95054 17.0003 7.125 17C7.40246 17.0006 7.67135 16.9017 7.885 16.7207C8.00525 16.6188 8.10464 16.4936 8.1775 16.3524C8.25035 16.2111 8.29523 16.0565 8.30958 15.8975C8.32391 15.7385 8.30743 15.5781 8.26106 15.4256C8.2147 15.2731 8.13937 15.1314 8.03938 15.0087L3.72875 9.71494H17.8125C18.1274 9.71494 18.4295 9.58701 18.6522 9.35931C18.8749 9.13161 19 8.82278 19 8.50076C19 8.17874 18.8749 7.86991 18.6522 7.64221C18.4295 7.4145 18.1274 7.28658 17.8125 7.28658Z" fill="#2156AE"/>
</svg>
