<svg width="150" height="150" viewBox="0 0 32 32" fill="none" xmlns="http://www.w3.org/2000/svg">
<path d="M31.4667 0H22.9333C22.6388 0 22.4 0.2388 22.4 0.533333V7.46667H15.4667C15.1721 7.46667 14.9333 7.70547 14.9333 8V14.9333H8C7.70547 14.9333 7.46667 15.1721 7.46667 15.4667V22.4H0.533333C0.2388 22.4 0 22.6388 0 22.9333V31.4667C0 31.7612 0.2388 32 0.533333 32H31.4667C31.7612 32 32 31.7612 32 31.4667V0.533333C32 0.2388 31.7612 0 31.4667 0ZM30.9333 30.9333H1.06667V23.4667H8C8.29453 23.4667 8.53333 23.2279 8.53333 22.9333V16H15.4667C15.7612 16 16 15.7612 16 15.4667V8.53333H22.9333C23.2279 8.53333 23.4667 8.29453 23.4667 8V1.06667H30.9333V30.9333Z" fill="#56A5E1"/>
</svg>
